<?xml version="1.0" encoding="UTF-8"?><svg id="Layer_1" xmlns="http://www.w3.org/2000/svg" viewBox="0 0 474 474"><defs><style>.cls-1{fill:#010101;stroke-width:0px;}</style></defs><path class="cls-1" d="m455.37,144.75c-11.93-28.22-29.02-53.57-50.79-75.33-21.76-21.76-47.11-38.85-75.33-50.79C300.03,6.27,268.99,0,237,0s-63.03,6.27-92.25,18.63c-28.22,11.93-53.57,29.02-75.33,50.79-21.76,21.76-38.85,47.11-50.79,75.33C6.27,173.97,0,205.01,0,237s6.27,63.03,18.63,92.25c11.94,28.23,29.03,53.57,50.79,75.33,21.76,21.76,47.11,38.85,75.33,50.79,29.22,12.36,60.26,18.63,92.25,18.63s63.03-6.27,92.25-18.63c28.22-11.93,53.56-29.02,75.33-50.79s38.85-47.11,50.79-75.33c12.37-29.22,18.63-60.26,18.63-92.25s-6.27-63.03-18.63-92.25Zm-158.93,273.45h-.88c-.82.06-1.64-.22-2.27-.75-.51-.61-.79-1.4-.76-2.21v-27.2c.13-10.04.2-18.95.2-27.25-.03-7.29-1.09-14.54-3.15-21.53-.98-3.52-2.41-6.87-4.23-9.98,9.85-1.7,19.54-4.33,28.94-7.84,11.44-4.35,22.01-11.3,30.54-20.08l.05-.05c8.47-8.89,14.87-19.78,18.52-31.53,4.3-13.91,6.33-28.34,6.06-42.88.07-10.49-1.75-20.79-5.42-30.63-3.27-8.71-7.94-16.7-13.9-23.77.9-2.82,1.61-5.72,2.08-8.64.7-4.22,1.05-8.48,1.05-12.68,0-5.49-.63-10.97-1.88-16.28-1.11-5.26-2.63-10.48-4.5-15.52l-1.04-2.78-2.76-1.08c-1.47-.58-3.01-.87-4.58-.84h-2.13c-5,.04-9.99.86-14.83,2.42-4.86,1.43-9.66,3.2-14.25,5.28-4.57,2.04-9.07,4.38-13.35,6.92-2.96,1.75-5.86,3.55-8.8,5.48-31.61-8.26-64.8-8.26-96.41,0-2.88-1.88-5.81-3.71-8.77-5.48-4.35-2.57-8.91-4.89-13.55-6.9-4.61-2.15-9.43-3.94-14.33-5.31-4.71-1.54-9.6-2.35-14.55-2.41h-2.16c-1.56-.01-3.1.26-4.57.84l-2.74,1.08-1.04,2.75c-1.91,5.04-3.48,10.26-4.68,15.52l-.02.09c-1.11,5.21-1.68,10.65-1.7,16.22,0,4.24.36,8.52,1.07,12.68.48,2.94,1.17,5.83,2.06,8.63-5.96,7.1-10.61,15.08-13.87,23.81-3.67,9.82-5.52,20.12-5.47,30.61-.28,14.46,1.7,28.81,5.89,42.66l.03.11c3.74,11.62,10.1,22.54,18.4,31.56l.16.16c8.66,8.81,18.91,15.55,30.5,20.05,9.36,3.58,19.05,6.25,28.91,7.96-.84,1.46-1.6,2.97-2.27,4.53l-.03.09c-1.62,3.93-2.85,8.01-3.67,12.18-5.29,2.07-10.98,3.17-16.64,3.2h-.23c-5.83.24-11.5-1.34-16.37-4.56-5.07-3.78-9.3-8.44-12.59-13.84l-.1-.16c-1.85-2.87-3.95-5.61-6.23-8.16-2.44-2.71-5.15-5.21-8.06-7.42l-.05-.04c-2.98-2.23-6.25-4.05-9.72-5.42-3.73-1.62-7.69-2.44-11.76-2.44h-.17c-.79.02-1.6.08-2.57.2-1.45.03-2.9.22-4.36.59-1.56.41-3.03,1.07-4.37,1.97-2.57,1.58-4.18,4.38-4.22,7.42v.33s.02.33.02.33c.33,3.76,2.25,7.15,5.3,9.36,1.88,1.49,3.44,2.64,4.74,3.48l.35.24c2.35,1.83,4.58,3.77,6.62,5.78l.29.26c1.77,1.56,3.37,3.31,4.74,5.22l.1.13c1.49,1.96,2.74,4.03,3.71,6.12l.18.37c1.32,2.43,2.72,5.24,4.16,8.34,4.17,10.41,11.39,19.04,20.89,24.98l.38.22c9.67,5.19,20.57,7.78,31.55,7.53,3.57,0,7.16-.21,10.7-.62l.31-.04c.7-.12,1.44-.24,2.19-.36v25.83c.06,1.07-.46,1.8-.77,2.14-.31.34-1,.92-2.07.96-.11,0-.22,0-.33,0l-.58-.02c-48.06-15.8-87.19-49.28-110.25-94.36-23.22-45.38-27.38-97.09-11.71-145.6,15.67-48.51,49.29-88.01,94.67-111.23,45.38-23.22,97.09-27.37,145.6-11.7,48.51,15.67,88.01,49.29,111.23,94.67,23.22,45.38,27.37,97.09,11.7,145.6-9.25,28.63-25.38,55.01-46.66,76.28-21.09,21.09-47.19,37.13-75.53,46.42Z"/></svg>