<?xml version="1.0" encoding="UTF-8"?><svg id="Layer_1" xmlns="http://www.w3.org/2000/svg" viewBox="0 0 469.52 469.56"><defs><style>.cls-1{stroke-width:0px;}</style></defs><path class="cls-1" d="m469.27,118.17c-.57-2.57-1.05-5.2-1.57-7.96-1.17-6.32-2.38-12.87-4.7-19.35-18.23-51.09-54.52-81.26-107.85-89.69-.1-.04-.2-.08-.3-.11-.46-.18-.92-.35-1.38-.51l-1.61-.53H118.31l-1.14.26c-2.27.51-4.54.99-6.94,1.49-5.25,1.09-10.68,2.22-16.1,3.82-27.23,8-50.63,24.17-67.67,46.76C9.39,74.95.31,101.91.21,130.26c-.28,80.02-.28,146.46.02,209.1.16,34.53,13.75,67.06,38.28,91.59,24.53,24.54,57.06,38.15,91.61,38.32,36.47.18,71.47.28,105.44.28,36.07,0,71-.1,105.31-.31,31.12-.19,61.32-12.05,85.03-33.39,23.61-21.25,38.72-50.03,42.52-81.01.05-.39.24-1.12.41-1.83.15-.58.3-1.16.43-1.74l.26-1.14V119.28l-.25-1.11Zm-55.21,218.73c-.03,21.12-7.88,40.6-22.13,54.87-14.24,14.26-33.71,22.12-54.81,22.15-72.74.09-139.73.09-204.78,0-20.95-.03-40.34-7.89-54.59-22.14-14.25-14.23-22.12-33.61-22.17-54.54-.05-23.7-.04-47.8-.03-71.1,0-10.61.01-21.21.01-31.82s0-20.56,0-30.84c0-23.1-.01-46.99.01-70.47.03-21.46,7.89-41.14,22.14-55.41,14.25-14.26,33.91-22.13,55.34-22.14,36.07-.03,70.58-.04,103.98-.04s67.33.01,99.73.04c44.02.04,77.25,33.22,77.29,77.2.07,72.04.07,138.85,0,204.25Z"/><path class="cls-1" d="m234.8,120.74h-.09c-62.81.05-113.88,51.21-113.84,114.06.02,30.36,11.92,58.94,33.49,80.49,21.56,21.52,50.14,33.37,80.48,33.37h.08c30.37-.03,58.96-11.92,80.49-33.5,21.53-21.58,33.38-50.19,33.35-80.57-.05-62.79-51.17-113.84-113.97-113.84Zm58.54,113.87c0,15.65-6.11,30.37-17.23,41.45-11.09,11.06-25.78,17.15-41.38,17.15-.06,0-.13,0-.19,0-32.16-.1-58.28-26.43-58.23-58.69.06-32.18,26.31-58.34,58.53-58.34h.03c32.22.02,58.45,26.23,58.46,58.44Z"/><path class="cls-1" d="m379.33,110.59v.05c0,8.17-3.21,15.86-9.04,21.65-5.79,5.75-13.43,8.91-21.54,8.91h-.24c-16.69-.13-30.28-13.82-30.3-30.52-.01-8.19,3.19-15.89,9.03-21.69,5.79-5.75,13.43-8.91,21.55-8.91h.23c16.68.13,30.28,13.82,30.3,30.51Z"/></svg>